# Blender v2.69 (sub 0) OBJ File: 'star.blend'
# www.blender.org
mtllib star.mtl
o Circle
v -20.000000 0.000000 -0.509519
v -7.016990 5.098142 0.000000
v -6.180339 19.021132 -0.509519
v 2.680252 8.248966 0.000000
v 16.180342 11.755704 -0.509519
v 8.673475 -0.000000 0.000000
v 16.180340 -11.755707 -0.509519
v 2.680252 -8.248966 0.000000
v -6.180343 -19.021130 -0.509519
v -7.016992 -5.098138 0.000000
v -18.120258 -0.000000 -5.382798
v -7.016990 5.098142 -6.034099
v -5.599467 17.233389 -5.382798
v 2.680252 8.248966 -6.034099
v 14.659597 10.650820 -5.382798
v 8.673475 -0.000000 -6.034099
v 14.659595 -10.650822 -5.382798
v 2.680252 -8.248966 -6.034099
v -5.599470 -17.233389 -5.382798
v -7.016992 -5.098138 -6.034099
v -8.314013 -6.040479 -3.017049
v -21.469604 -0.000000 -3.158831
v -6.634476 -20.418812 -3.158831
v 3.175670 -9.773705 -3.017049
v 17.369276 -12.619520 -3.158831
v 10.276680 -0.000000 -3.017049
v 17.369280 12.619518 -3.158831
v 3.175670 9.773705 -3.017049
v -6.634473 20.418812 -3.158831
v -8.314011 6.040483 -3.017049
v -13.508493 2.549071 0.000000
v -6.598664 12.059636 0.000000
v -1.750044 13.635049 0.000000
v 9.430296 10.002335 0.000000
v 12.426908 5.877851 0.000000
v 12.426907 -5.877853 0.000000
v 9.430295 -10.002337 0.000000
v -1.750045 -13.635048 0.000000
v -6.598667 -12.059633 0.000000
v -13.508496 -2.549069 0.000000
v -13.508493 2.549071 -6.034099
v -6.598664 12.059636 -6.034099
v -1.750044 13.635049 -6.034099
v 9.430296 10.002335 -6.034099
v 12.426908 5.877851 -6.034099
v 12.426907 -5.877853 -6.034099
v 9.430295 -10.002337 -6.034099
v -1.750045 -13.635048 -6.034099
v -6.598667 -12.059633 -6.034099
v -13.508496 -2.549069 -6.034099
v -7.665503 -5.569309 -1.508525
v -19.794931 -0.000000 -4.525574
v -6.751530 -20.779064 -1.508525
v 2.927961 -9.011335 -1.508525
v 17.675726 -12.842170 -1.508525
v 9.475078 -0.000000 -1.508525
v 17.675728 12.842167 -1.508525
v 2.927961 9.011335 -1.508525
v -6.751527 20.779064 -1.508525
v -7.665500 5.569312 -1.508525
v -7.665503 -5.569309 -4.525574
v -21.848400 -0.000000 -1.508525
v -6.116973 -18.826101 -4.525574
v 2.927961 -9.011335 -4.525574
v 16.014437 -11.635171 -4.525574
v 9.475078 -0.000000 -4.525574
v 16.014439 11.635169 -4.525574
v 2.927961 9.011335 -4.525574
v -6.116970 18.826099 -4.525574
v -7.665500 5.569312 -4.525574
v -16.005405 -3.020239 -3.017049
v -7.818365 -14.288738 -3.017049
v -2.073524 -16.155352 -3.017049
v 11.173391 -11.851169 -3.017049
v 14.723897 -6.964316 -3.017049
v 14.723900 6.964314 -3.017049
v 11.173393 11.851168 -3.017049
v -2.073522 16.155352 -3.017049
v -7.818362 14.288740 -3.017049
v -16.005404 3.020241 -3.017049
v -14.756951 -2.784655 -4.525574
v -7.208516 -13.174186 -4.525574
v -1.911784 -14.895200 -4.525574
v 10.301843 -10.926752 -4.525574
v 13.575401 -6.421085 -4.525574
v 13.575403 6.421082 -4.525574
v 10.301846 10.926751 -4.525574
v -1.911783 14.895201 -4.525574
v -7.208513 13.174189 -4.525574
v -14.756948 2.784656 -4.525574
v -14.756951 -2.784655 -1.508525
v -7.208516 -13.174186 -1.508525
v -1.911784 -14.895200 -1.508525
v 10.301843 -10.926752 -1.508525
v 13.575401 -6.421085 -1.508525
v 13.575403 6.421082 -1.508525
v 10.301846 10.926751 -1.508525
v -1.911783 14.895201 -1.508525
v -7.208513 13.174189 -1.508525
v -14.756948 2.784656 -1.508525
vt 0.384381 0.613094
vt 0.330255 0.572080
vt 0.397791 0.537714
vt 0.120117 0.306990
vt 0.044789 0.295440
vt 0.099628 0.241957
vt 0.300439 0.403220
vt 0.262721 0.476719
vt 0.296358 0.386040
vt 0.420575 0.316166
vt 0.338157 0.329721
vt 0.329995 0.318540
vt 0.443661 0.243394
vt 0.502993 0.302611
vt 0.425811 0.241956
vt 0.398039 0.101542
vt 0.384330 0.184177
vt 0.370972 0.188474
vt 0.337234 0.055776
vt 0.411748 0.018908
vt 0.330255 0.072081
vt 0.188205 0.055776
vt 0.262720 0.092644
vt 0.262720 0.106447
vt 0.127400 0.101543
vt 0.113691 0.018908
vt 0.141057 0.113094
vt 0.081777 0.243395
vt 0.141109 0.184177
vt 0.154467 0.188474
vt 0.104865 0.316168
vt 0.022446 0.302613
vt 0.225003 0.403220
vt 0.187284 0.329722
vt 0.195445 0.318541
vt 0.188204 0.555776
vt 0.113689 0.518908
vt 0.099732 0.500102
vt 0.337233 0.555776
vt 0.262719 0.592644
vt 0.344212 0.539471
vt 0.398039 0.601543
vt 0.411748 0.518908
vt 0.425706 0.500102
vt 0.443660 0.743394
vt 0.384329 0.684177
vt 0.461511 0.744833
vt 0.420573 0.816166
vt 0.502991 0.802612
vt 0.525334 0.809785
vt 0.300438 0.903220
vt 0.338155 0.829721
vt 0.304518 0.920400
vt 0.225001 0.903220
vt 0.262720 0.976719
vt 0.262720 0.999897
vt 0.104864 0.816168
vt 0.187283 0.829722
vt 0.089612 0.825345
vt 0.081777 0.743396
vt 0.022446 0.802614
vt 0.000102 0.809787
vt 0.127399 0.601543
vt 0.141108 0.684178
vt 0.113741 0.589991
vt 0.346318 0.340902
vt 0.304520 0.420400
vt 0.262721 0.499897
vt 0.405323 0.306989
vt 0.525336 0.309784
vt 0.435827 0.325343
vt 0.397687 0.179879
vt 0.461512 0.244832
vt 0.384381 0.113094
vt 0.425705 0.000102
vt 0.411696 0.089991
vt 0.262720 0.078841
vt 0.344212 0.039471
vt 0.195184 0.072080
vt 0.099733 0.000102
vt 0.181226 0.039471
vt 0.127751 0.179880
vt 0.113742 0.089991
vt 0.000102 0.309787
vt 0.063927 0.244833
vt 0.179123 0.340903
vt 0.089613 0.325345
vt 0.229083 0.386041
vt 0.220922 0.420400
vt 0.181225 0.539471
vt 0.262719 0.606447
vt 0.195183 0.572080
vt 0.127647 0.537714
vt 0.411696 0.589991
vt 0.370972 0.688474
vt 0.480649 0.795438
vt 0.425810 0.741956
vt 0.435825 0.825343
vt 0.329994 0.818540
vt 0.405321 0.806989
vt 0.262720 0.953540
vt 0.296357 0.886040
vt 0.220921 0.920400
vt 0.195444 0.818541
vt 0.229082 0.886041
vt 0.044789 0.795440
vt 0.120116 0.806991
vt 0.063926 0.744834
vt 0.154466 0.688475
vt 0.099627 0.741957
vt 0.141056 0.613094
vt 0.480650 0.295437
vt 0.127648 0.037714
vt 0.397791 0.037714
vt 0.262721 0.453540
vt 0.262719 0.578840
vt 0.397687 0.679880
vt 0.346317 0.840902
vt 0.179122 0.840903
vt 0.127750 0.679880
vn -0.024180 -0.074420 0.996934
vn -0.043213 0.132994 -0.990174
vn -0.426185 -0.771051 -0.473125
vn -0.911008 -0.054744 -0.408738
vn 0.601614 -0.643593 -0.473126
vn -0.229453 -0.883337 -0.408739
vn 0.798003 0.373288 -0.473125
vn 0.769199 -0.491189 -0.408738
vn -0.108422 0.874298 -0.473125
vn 0.704844 0.579765 -0.408738
vn -0.865011 0.167058 -0.473125
vn -0.333582 0.849504 -0.408738
vn -0.364228 -0.927550 -0.083601
vn -0.911008 -0.054744 0.408739
vn 0.769599 -0.633031 -0.083601
vn -0.229453 -0.883337 0.408737
vn 0.839867 0.536316 -0.083601
vn 0.769198 -0.491189 0.408739
vn -0.250533 0.964492 -0.083600
vn 0.704843 0.579765 0.408739
vn -0.994705 0.059773 -0.083601
vn -0.333581 0.849504 0.408739
vn -0.333581 -0.849503 -0.408739
vn -0.333581 -0.849504 -0.408738
vn -0.418246 -0.778646 -0.467740
vn -0.865011 -0.167058 -0.473125
vn -0.869781 -0.157161 -0.467741
vn 0.704843 -0.579766 -0.408739
vn 0.704844 -0.579766 -0.408738
vn 0.611290 -0.638389 -0.467743
vn -0.108422 -0.874298 -0.473125
vn -0.119308 -0.875777 -0.467740
vn -0.229453 -0.883336 -0.408740
vn 0.769199 0.491189 -0.408738
vn 0.796044 0.384099 -0.467741
vn 0.798003 -0.373288 -0.473124
vn 0.796044 -0.384098 -0.467741
vn -0.229453 0.883336 -0.408740
vn -0.229453 0.883337 -0.408738
vn -0.119308 0.875776 -0.467741
vn 0.601614 0.643594 -0.473125
vn 0.611291 0.638390 -0.467741
vn 0.704844 0.579766 -0.408738
vn -0.911008 0.054744 -0.408738
vn -0.869781 0.157161 -0.467741
vn -0.426185 0.771051 -0.473125
vn -0.418246 0.778646 -0.467741
vn -0.333581 0.849504 -0.408738
vn -0.333581 -0.849504 0.408738
vn -0.333581 -0.849504 0.408739
vn -0.330377 -0.719160 0.611277
vn -0.994705 -0.059773 -0.083601
vn -0.786053 -0.091975 0.611278
vn -0.911008 -0.054744 0.408738
vn 0.704844 -0.579766 0.408738
vn 0.581869 -0.536440 0.611278
vn -0.250533 -0.964492 -0.083600
vn -0.155431 -0.776003 0.611278
vn -0.229453 -0.883337 0.408738
vn 0.769199 0.491189 0.408739
vn 0.769199 0.491189 0.408738
vn 0.689993 0.387621 0.611277
vn 0.839867 -0.536315 -0.083600
vn 0.689992 -0.387622 0.611277
vn 0.769199 -0.491189 0.408738
vn -0.229453 0.883337 0.408738
vn -0.155430 0.776003 0.611278
vn 0.769600 0.633030 -0.083599
vn 0.581869 0.536440 0.611277
vn 0.704844 0.579766 0.408738
vn -0.911008 0.054744 0.408739
vn -0.786053 0.091975 0.611278
vn -0.364228 0.927550 -0.083601
vn -0.330378 0.719159 0.611278
vn -0.333581 0.849504 0.408738
vn -0.024180 0.074420 0.996934
vn -0.078249 0.000000 0.996934
vn 0.063305 0.045994 0.996934
vn 0.063305 -0.045994 0.996934
vn 0.000000 0.000000 1.000000
vn -0.043212 -0.132994 -0.990174
vn 0.113131 0.082195 -0.990174
vn 0.113132 -0.082195 -0.990174
vn -0.139838 0.000000 -0.990174
vn 0.000000 0.000000 -1.000000
vn -0.391248 -0.512549 -0.764342
vn -0.911008 -0.054744 -0.408739
vn 0.366560 -0.530484 -0.764343
vn -0.229453 -0.883337 -0.408738
vn 0.617794 0.184691 -0.764343
vn 0.015257 0.644630 -0.764342
vn -0.608365 0.213712 -0.764342
vn -0.434241 -0.763161 0.478560
vn 0.591621 -0.648817 0.478562
vn -0.229453 -0.883336 0.408740
vn 0.799883 0.362169 0.478561
vn -0.097266 0.872651 0.478560
vn -0.859997 0.177158 0.478560
vn -0.333581 0.849503 0.408739
vn -0.333581 -0.849504 -0.408739
vn -0.333581 -0.849504 -0.408737
vn -0.416142 -0.752881 -0.509899
vn -0.608365 -0.213712 -0.764342
vn -0.844627 -0.163121 -0.509899
vn 0.704844 -0.579766 -0.408737
vn 0.587438 -0.628428 -0.509897
vn 0.015257 -0.644630 -0.764342
vn -0.105867 -0.853695 -0.509899
vn -0.229453 -0.883338 -0.408737
vn 0.769199 0.491188 -0.408739
vn 0.779198 0.364492 -0.509899
vn 0.617793 -0.184691 -0.764343
vn 0.779197 -0.364492 -0.509901
vn 0.769198 -0.491189 -0.408739
vn -0.229453 0.883338 -0.408737
vn -0.105867 0.853695 -0.509899
vn 0.366561 0.530485 -0.764342
vn 0.587436 0.628427 -0.509901
vn 0.704844 0.579765 -0.408739
vn -0.911008 0.054744 -0.408739
vn -0.844627 0.163121 -0.509899
vn -0.391247 0.512550 -0.764342
vn -0.416142 0.752881 -0.509899
vn -0.333581 0.849503 -0.408739
vn -0.859997 -0.177158 0.478560
vn 0.704843 -0.579766 0.408739
vn -0.097266 -0.872651 0.478559
vn -0.229453 -0.883338 0.408737
vn 0.799883 -0.362170 0.478560
vn 0.769199 -0.491189 0.408739
vn -0.229453 0.883336 0.408740
vn 0.591621 0.648817 0.478560
vn 0.704844 0.579766 0.408737
vn 0.704844 0.579766 0.408739
vn -0.911008 0.054744 0.408738
vn -0.434241 0.763161 0.478560
g Circle_Circle_None
usemtl None
s off
f 38/1/1 39/2/1 9/3/1
f 42/4/2 13/5/2 43/6/2
f 81/7/3 52/8/3 50/9/3
f 82/10/4 61/11/4 20/12/4
f 83/13/5 63/14/5 48/15/5
f 84/16/6 64/17/6 18/18/6
f 85/19/7 65/20/7 46/21/7
f 86/22/8 66/23/8 16/24/8
f 87/25/9 67/26/9 44/27/9
f 88/28/10 68/29/10 14/30/10
f 89/31/11 69/32/11 42/4/11
f 90/33/12 70/34/12 12/35/12
f 91/36/13 62/37/13 22/38/13
f 92/39/14 51/40/14 72/41/14
f 93/42/15 53/43/15 23/44/15
f 94/45/16 54/46/16 74/47/16
f 95/48/17 55/49/17 25/50/17
f 96/51/18 56/52/18 76/53/18
f 97/54/19 57/55/19 27/56/19
f 98/57/20 58/58/20 78/59/20
f 99/60/21 59/61/21 29/62/21
f 100/63/22 60/64/22 80/65/22
f 61/11/23 81/7/23 20/12/23
f 21/66/24 71/67/24 61/11/24
f 71/67/25 22/68/25 81/7/25
f 63/14/26 82/10/26 49/69/26
f 23/70/27 72/71/27 82/10/27
f 72/71/4 21/66/4 61/11/4
f 64/17/28 83/13/28 18/18/28
f 24/72/29 73/73/29 64/17/29
f 73/73/30 23/70/30 83/13/30
f 65/20/31 84/16/31 47/74/31
f 25/75/32 74/76/32 84/16/32
f 74/76/33 24/72/33 64/17/33
f 66/23/34 85/19/34 16/24/34
f 26/77/34 75/78/34 66/23/34
f 75/78/35 25/75/35 85/19/35
f 67/26/36 86/22/36 45/79/36
f 27/80/37 76/81/37 86/22/37
f 76/81/8 26/77/8 66/23/8
f 68/29/38 87/25/38 14/30/38
f 28/82/39 77/83/39 68/29/39
f 77/83/40 27/80/40 87/25/40
f 69/32/41 88/28/41 43/6/41
f 29/84/42 78/85/42 88/28/42
f 78/85/43 28/82/43 68/29/43
f 70/34/44 89/31/44 12/35/44
f 30/86/44 79/87/44 70/34/44
f 79/87/45 29/84/45 89/31/45
f 52/8/46 90/33/46 41/88/46
f 22/68/47 80/89/47 90/33/47
f 80/89/48 30/86/48 70/34/48
f 51/40/49 91/36/49 71/90/49
f 10/91/50 40/92/50 91/36/50
f 40/92/51 1/93/51 62/37/51
f 53/43/52 92/39/52 23/44/52
f 9/3/53 39/2/53 53/43/53
f 39/2/54 10/91/54 92/39/54
f 54/46/55 93/42/55 73/94/55
f 8/95/55 38/1/55 93/42/55
f 38/1/56 9/3/56 53/43/56
f 55/49/57 94/45/57 25/50/57
f 7/96/58 37/97/58 55/49/58
f 37/97/59 8/95/59 94/45/59
f 56/52/60 95/48/60 75/98/60
f 6/99/61 36/100/61 95/48/61
f 36/100/62 7/96/62 55/49/62
f 57/55/63 96/51/63 27/56/63
f 5/101/64 35/102/64 57/55/64
f 35/102/65 6/99/65 96/51/65
f 58/58/66 97/54/66 77/103/66
f 4/104/66 34/105/66 97/54/66
f 34/105/67 5/101/67 57/55/67
f 59/61/68 98/57/68 29/62/68
f 3/106/69 33/107/69 59/61/69
f 33/107/70 4/104/70 98/57/70
f 60/64/71 99/60/71 79/108/71
f 2/109/71 32/110/71 99/60/71
f 32/110/72 3/106/72 59/61/72
f 62/37/73 100/63/73 22/38/73
f 1/93/74 31/111/74 62/37/74
f 31/111/75 2/109/75 100/63/75
f 32/110/76 33/107/76 3/106/76
f 31/111/77 1/93/77 40/92/77
f 34/105/78 35/102/78 5/101/78
f 36/100/79 37/97/79 7/96/79
f 31/111/80 40/92/80 10/91/80
f 2/109/80 31/111/80 10/91/80
f 8/95/80 39/2/80 38/1/80
f 8/95/80 10/91/80 39/2/80
f 2/109/80 10/91/80 8/95/80
f 32/110/80 2/109/80 33/107/80
f 33/107/80 2/109/80 4/104/80
f 2/109/80 8/95/80 4/104/80
f 8/95/80 37/97/80 36/100/80
f 8/95/80 36/100/80 6/99/80
f 4/104/80 8/95/80 6/99/80
f 34/105/80 4/104/80 35/102/80
f 4/104/80 6/99/80 35/102/80
f 49/69/81 48/15/81 19/112/81
f 45/79/82 44/27/82 15/113/82
f 47/74/83 46/21/83 17/114/83
f 41/88/84 50/9/84 11/115/84
f 41/88/85 20/12/85 50/9/85
f 41/88/85 12/35/85 20/12/85
f 49/69/85 18/18/85 48/15/85
f 20/12/85 18/18/85 49/69/85
f 20/12/85 12/35/85 18/18/85
f 12/35/85 42/4/85 43/6/85
f 12/35/85 43/6/85 14/30/85
f 18/18/85 12/35/85 14/30/85
f 47/74/85 18/18/85 46/21/85
f 46/21/85 18/18/85 16/24/85
f 18/18/85 14/30/85 16/24/85
f 14/30/85 44/27/85 16/24/85
f 44/27/85 45/79/85 16/24/85
f 52/8/86 11/115/86 50/9/86
f 49/69/87 82/10/87 20/12/87
f 63/14/88 19/112/88 48/15/88
f 47/74/89 84/16/89 18/18/89
f 65/20/90 17/114/90 46/21/90
f 45/79/8 86/22/8 16/24/8
f 67/26/91 15/113/91 44/27/91
f 43/6/43 88/28/43 14/30/43
f 69/32/92 13/5/92 42/4/92
f 41/88/48 90/33/48 12/35/48
f 71/90/93 91/36/93 22/38/93
f 51/40/54 21/116/54 72/41/54
f 73/94/94 93/42/94 23/44/94
f 54/46/95 24/117/95 74/47/95
f 75/98/96 95/48/96 25/50/96
f 56/52/65 26/118/65 76/53/65
f 77/103/97 97/54/97 27/56/97
f 58/58/70 28/119/70 78/59/70
f 79/108/98 99/60/98 29/62/98
f 60/64/99 30/120/99 80/65/99
f 81/7/100 50/9/100 20/12/100
f 71/67/101 81/7/101 61/11/101
f 22/68/102 52/8/102 81/7/102
f 19/112/103 63/14/103 49/69/103
f 63/14/104 23/70/104 82/10/104
f 82/10/87 72/71/87 61/11/87
f 83/13/29 48/15/29 18/18/29
f 73/73/105 83/13/105 64/17/105
f 23/70/106 63/14/106 83/13/106
f 17/114/107 65/20/107 47/74/107
f 65/20/108 25/75/108 84/16/108
f 84/16/109 74/76/109 64/17/109
f 85/19/34 46/21/34 16/24/34
f 75/78/110 85/19/110 66/23/110
f 25/75/111 65/20/111 85/19/111
f 15/113/112 67/26/112 45/79/112
f 67/26/113 27/80/113 86/22/113
f 86/22/114 76/81/114 66/23/114
f 87/25/39 44/27/39 14/30/39
f 77/83/115 87/25/115 68/29/115
f 27/80/116 67/26/116 87/25/116
f 13/5/117 69/32/117 43/6/117
f 69/32/118 29/84/118 88/28/118
f 88/28/119 78/85/119 68/29/119
f 89/31/120 42/4/120 12/35/120
f 79/87/120 89/31/120 70/34/120
f 29/84/121 69/32/121 89/31/121
f 11/115/122 52/8/122 41/88/122
f 52/8/123 22/68/123 90/33/123
f 90/33/124 80/89/124 70/34/124
f 21/116/49 51/40/49 71/90/49
f 51/40/50 10/91/50 91/36/50
f 91/36/49 40/92/49 62/37/49
f 92/39/125 72/41/125 23/44/125
f 39/2/14 92/39/14 53/43/14
f 10/91/14 51/40/14 92/39/14
f 24/117/55 54/46/55 73/94/55
f 54/46/126 8/95/126 93/42/126
f 93/42/55 38/1/55 53/43/55
f 94/45/127 74/47/127 25/50/127
f 37/97/128 94/45/128 55/49/128
f 8/95/59 54/46/59 94/45/59
f 26/118/61 56/52/61 75/98/61
f 56/52/61 6/99/61 95/48/61
f 95/48/60 36/100/60 55/49/60
f 96/51/129 76/53/129 27/56/129
f 35/102/130 96/51/130 57/55/130
f 6/99/65 56/52/65 96/51/65
f 28/119/66 58/58/66 77/103/66
f 58/58/131 4/104/131 97/54/131
f 97/54/66 34/105/66 57/55/66
f 98/57/132 78/59/132 29/62/132
f 33/107/133 98/57/133 59/61/133
f 4/104/134 58/58/134 98/57/134
f 30/120/135 60/64/135 79/108/135
f 60/64/135 2/109/135 99/60/135
f 99/60/135 32/110/135 59/61/135
f 100/63/136 80/65/136 22/38/136
f 31/111/75 100/63/75 62/37/75
f 2/109/75 60/64/75 100/63/75
